%TF.GenerationSoftware,KiCad,Pcbnew,5.1.7-a382d34a88~90~ubuntu20.04.1*%
%TF.CreationDate,2022-09-16T19:00:19+02:00*%
%TF.ProjectId,goto-exp,676f746f-2d65-4787-902e-6b696361645f,rev?*%
%TF.SameCoordinates,Original*%
%TF.FileFunction,Copper,L1,Top*%
%TF.FilePolarity,Positive*%
%FSLAX46Y46*%
G04 Gerber Fmt 4.6, Leading zero omitted, Abs format (unit mm)*
G04 Created by KiCad (PCBNEW 5.1.7-a382d34a88~90~ubuntu20.04.1) date 2022-09-16 19:00:19*
%MOMM*%
%LPD*%
G01*
G04 APERTURE LIST*
%TA.AperFunction,ComponentPad*%
%ADD10O,1.700000X1.700000*%
%TD*%
%TA.AperFunction,ComponentPad*%
%ADD11R,1.700000X1.700000*%
%TD*%
%TA.AperFunction,ComponentPad*%
%ADD12C,1.600000*%
%TD*%
%TA.AperFunction,ComponentPad*%
%ADD13C,2.000000*%
%TD*%
%TA.AperFunction,ComponentPad*%
%ADD14R,2.000000X2.000000*%
%TD*%
%TA.AperFunction,ComponentPad*%
%ADD15O,1.600000X1.600000*%
%TD*%
%TA.AperFunction,ComponentPad*%
%ADD16R,1.600000X1.600000*%
%TD*%
%TA.AperFunction,Conductor*%
%ADD17C,0.250000*%
%TD*%
%TA.AperFunction,Conductor*%
%ADD18C,1.100000*%
%TD*%
G04 APERTURE END LIST*
D10*
%TO.P,J4,4*%
%TO.N,Net-(J3-Pad4)*%
X144843500Y-58343800D03*
%TO.P,J4,3*%
%TO.N,Net-(J3-Pad3)*%
X144843500Y-55803800D03*
%TO.P,J4,2*%
%TO.N,Net-(Arduino1-Pad2)*%
X144843500Y-53263800D03*
D11*
%TO.P,J4,1*%
%TO.N,Net-(J2-Pad1)*%
X144843500Y-50723800D03*
%TD*%
D12*
%TO.P,U1,1*%
%TO.N,Net-(U1-Pad1)*%
X94509000Y-38775700D03*
%TO.P,U1,2*%
%TO.N,Net-(Arduino1-Pad3)*%
X97049000Y-38775700D03*
%TO.P,U1,3*%
%TO.N,Net-(Arduino1-Pad4)*%
X99589000Y-38775700D03*
%TO.P,U1,4*%
%TO.N,Net-(U1-Pad4)*%
X102129000Y-38775700D03*
%TO.P,U1,5*%
%TO.N,Net-(U1-Pad5)*%
X104669000Y-38775700D03*
%TO.P,U1,6*%
%TO.N,Net-(U1-Pad6)*%
X107209000Y-38775700D03*
%TO.P,U1,7*%
%TO.N,Net-(U1-Pad7)*%
X109749000Y-38775700D03*
%TO.P,U1,8*%
%TO.N,Net-(U1-Pad8)*%
X112289000Y-38775700D03*
%TO.P,U1,9*%
%TO.N,Net-(U1-Pad9)*%
X114829000Y-38775700D03*
%TO.P,U1,10*%
%TO.N,Net-(U1-Pad10)*%
X117369000Y-38775700D03*
%TO.P,U1,11*%
%TO.N,Net-(U1-Pad11)*%
X119909000Y-38775700D03*
%TO.P,U1,12*%
%TO.N,Net-(U1-Pad12)*%
X122449000Y-38775700D03*
%TO.P,U1,13*%
%TO.N,Net-(U1-Pad13)*%
X124989000Y-38775700D03*
%TO.P,U1,33*%
%TO.N,Net-(Arduino1-Pad1)*%
X94509000Y-54015700D03*
%TO.P,U1,32*%
%TO.N,Net-(Arduino1-Pad2)*%
X97049000Y-54015700D03*
%TO.P,U1,31*%
%TO.N,Net-(J2-Pad1)*%
X99589000Y-54015700D03*
%TO.P,U1,30*%
%TO.N,Net-(U1-Pad30)*%
X102129000Y-54015700D03*
%TO.P,U1,29*%
%TO.N,Net-(U1-Pad29)*%
X104669000Y-54015700D03*
%TO.P,U1,28*%
%TO.N,Net-(U1-Pad28)*%
X107209000Y-54015700D03*
%TO.P,U1,27*%
%TO.N,Net-(U1-Pad27)*%
X109749000Y-54015700D03*
%TO.P,U1,26*%
%TO.N,Net-(J3-Pad3)*%
X112289000Y-54015700D03*
%TO.P,U1,25*%
%TO.N,Net-(J3-Pad4)*%
X114829000Y-54015700D03*
%TO.P,U1,24*%
%TO.N,Net-(U1-Pad24)*%
X117369000Y-54015700D03*
%TO.P,U1,23*%
%TO.N,Net-(U1-Pad23)*%
X119909000Y-54015700D03*
%TO.P,U1,22*%
%TO.N,Net-(J2-Pad3)*%
X122449000Y-54015700D03*
%TO.P,U1,21*%
%TO.N,Net-(J2-Pad4)*%
X124989000Y-54015700D03*
%TO.P,U1,14*%
%TO.N,Net-(U1-Pad14)*%
X127529000Y-38775700D03*
%TO.P,U1,20*%
%TO.N,Net-(J2-Pad5)*%
X127529000Y-54015700D03*
%TD*%
D11*
%TO.P,J2,1*%
%TO.N,Net-(J2-Pad1)*%
X133972300Y-41249600D03*
D10*
%TO.P,J2,2*%
%TO.N,Net-(Arduino1-Pad2)*%
X133972300Y-43789600D03*
%TO.P,J2,3*%
%TO.N,Net-(J2-Pad3)*%
X133972300Y-46329600D03*
%TO.P,J2,4*%
%TO.N,Net-(J2-Pad4)*%
X133972300Y-48869600D03*
%TO.P,J2,5*%
%TO.N,Net-(J2-Pad5)*%
X133972300Y-51409600D03*
%TD*%
%TO.P,J3,4*%
%TO.N,Net-(J3-Pad4)*%
X144932400Y-46037500D03*
%TO.P,J3,3*%
%TO.N,Net-(J3-Pad3)*%
X144932400Y-43497500D03*
%TO.P,J3,2*%
%TO.N,Net-(Arduino1-Pad2)*%
X144932400Y-40957500D03*
D11*
%TO.P,J3,1*%
%TO.N,Net-(J2-Pad1)*%
X144932400Y-38417500D03*
%TD*%
D10*
%TO.P,J1,2*%
%TO.N,Net-(C1-Pad2)*%
X93802200Y-111048800D03*
D11*
%TO.P,J1,1*%
%TO.N,Net-(C1-Pad1)*%
X93802200Y-108508800D03*
%TD*%
D10*
%TO.P,RPi,40*%
%TO.N,Net-(RPi1-Pad40)*%
X93841700Y-68402200D03*
%TO.P,RPi,39*%
%TO.N,Net-(RPi1-Pad39)*%
X93841700Y-70942200D03*
%TO.P,RPi,38*%
%TO.N,Net-(RPi1-Pad38)*%
X96381700Y-68402200D03*
%TO.P,RPi,37*%
%TO.N,Net-(RPi1-Pad37)*%
X96381700Y-70942200D03*
%TO.P,RPi,36*%
%TO.N,Net-(RPi1-Pad36)*%
X98921700Y-68402200D03*
%TO.P,RPi,35*%
%TO.N,Net-(RPi1-Pad35)*%
X98921700Y-70942200D03*
%TO.P,RPi,34*%
%TO.N,Net-(RPi1-Pad34)*%
X101461700Y-68402200D03*
%TO.P,RPi,33*%
%TO.N,Net-(RPi1-Pad33)*%
X101461700Y-70942200D03*
%TO.P,RPi,32*%
%TO.N,Net-(RPi1-Pad32)*%
X104001700Y-68402200D03*
%TO.P,RPi,31*%
%TO.N,Net-(RPi1-Pad31)*%
X104001700Y-70942200D03*
%TO.P,RPi,30*%
%TO.N,Net-(RPi1-Pad30)*%
X106541700Y-68402200D03*
%TO.P,RPi,29*%
%TO.N,Net-(RPi1-Pad29)*%
X106541700Y-70942200D03*
%TO.P,RPi,28*%
%TO.N,Net-(RPi1-Pad28)*%
X109081700Y-68402200D03*
%TO.P,RPi,27*%
%TO.N,Net-(RPi1-Pad27)*%
X109081700Y-70942200D03*
%TO.P,RPi,26*%
%TO.N,Net-(RPi1-Pad26)*%
X111621700Y-68402200D03*
%TO.P,RPi,25*%
%TO.N,Net-(RPi1-Pad25)*%
X111621700Y-70942200D03*
%TO.P,RPi,24*%
%TO.N,Net-(RPi1-Pad24)*%
X114161700Y-68402200D03*
%TO.P,RPi,23*%
%TO.N,Net-(RPi1-Pad23)*%
X114161700Y-70942200D03*
%TO.P,RPi,22*%
%TO.N,Net-(RPi1-Pad22)*%
X116701700Y-68402200D03*
%TO.P,RPi,21*%
%TO.N,Net-(RPi1-Pad21)*%
X116701700Y-70942200D03*
%TO.P,RPi,20*%
%TO.N,Net-(RPi1-Pad20)*%
X119241700Y-68402200D03*
%TO.P,RPi,19*%
%TO.N,Net-(RPi1-Pad19)*%
X119241700Y-70942200D03*
%TO.P,RPi,18*%
%TO.N,Net-(RPi1-Pad18)*%
X121781700Y-68402200D03*
%TO.P,RPi,17*%
%TO.N,Net-(RPi1-Pad17)*%
X121781700Y-70942200D03*
%TO.P,RPi,16*%
%TO.N,Net-(RPi1-Pad16)*%
X124321700Y-68402200D03*
%TO.P,RPi,15*%
%TO.N,Net-(RPi1-Pad15)*%
X124321700Y-70942200D03*
%TO.P,RPi,14*%
%TO.N,Net-(RPi1-Pad14)*%
X126861700Y-68402200D03*
%TO.P,RPi,13*%
%TO.N,Net-(RPi1-Pad13)*%
X126861700Y-70942200D03*
%TO.P,RPi,12*%
%TO.N,Net-(RPi1-Pad12)*%
X129401700Y-68402200D03*
%TO.P,RPi,11*%
%TO.N,Net-(RPi1-Pad11)*%
X129401700Y-70942200D03*
%TO.P,RPi,10*%
%TO.N,Net-(Arduino1-Pad4)*%
X131941700Y-68402200D03*
%TO.P,RPi,9*%
%TO.N,Net-(RPi1-Pad9)*%
X131941700Y-70942200D03*
%TO.P,RPi,8*%
%TO.N,Net-(Arduino1-Pad3)*%
X134481700Y-68402200D03*
%TO.P,RPi,7*%
%TO.N,Net-(RPi1-Pad7)*%
X134481700Y-70942200D03*
%TO.P,RPi,6*%
%TO.N,Net-(Arduino1-Pad2)*%
X137021700Y-68402200D03*
%TO.P,RPi,5*%
%TO.N,Net-(RPi1-Pad5)*%
X137021700Y-70942200D03*
%TO.P,RPi,4*%
%TO.N,Net-(Arduino1-Pad1)*%
X139561700Y-68402200D03*
%TO.P,RPi,3*%
%TO.N,Net-(RPi1-Pad3)*%
X139561700Y-70942200D03*
%TO.P,RPi,2*%
%TO.N,Net-(RPi1-Pad2)*%
X142101700Y-68402200D03*
D11*
%TO.P,RPi,1*%
%TO.N,Net-(RPi1-Pad1)*%
X142101700Y-70942200D03*
%TD*%
D13*
%TO.P,C2,2*%
%TO.N,Net-(C1-Pad2)*%
X101826200Y-101638100D03*
D14*
%TO.P,C2,1*%
%TO.N,Net-(C1-Pad1)*%
X96826200Y-101638100D03*
%TD*%
D13*
%TO.P,C1,2*%
%TO.N,Net-(C1-Pad2)*%
X125956200Y-101612700D03*
D14*
%TO.P,C1,1*%
%TO.N,Net-(C1-Pad1)*%
X120956200Y-101612700D03*
%TD*%
D10*
%TO.P,ALTMotor1,4*%
%TO.N,Net-(ALTMotor1-Pad4)*%
X113983900Y-109601000D03*
%TO.P,ALTMotor1,3*%
%TO.N,Net-(ALTMotor1-Pad3)*%
X111443900Y-109601000D03*
%TO.P,ALTMotor1,2*%
%TO.N,Net-(ALTMotor1-Pad2)*%
X108903900Y-109601000D03*
D11*
%TO.P,ALTMotor1,1*%
%TO.N,Net-(ALTMotor1-Pad1)*%
X106363900Y-109601000D03*
%TD*%
D10*
%TO.P,Arduino1,4*%
%TO.N,Net-(Arduino1-Pad4)*%
X131914900Y-63461900D03*
%TO.P,Arduino1,3*%
%TO.N,Net-(Arduino1-Pad3)*%
X134454900Y-63461900D03*
%TO.P,Arduino1,2*%
%TO.N,Net-(Arduino1-Pad2)*%
X136994900Y-63461900D03*
D11*
%TO.P,Arduino1,1*%
%TO.N,Net-(Arduino1-Pad1)*%
X139534900Y-63461900D03*
%TD*%
D10*
%TO.P,AZMotor1,4*%
%TO.N,Net-(AZMotor1-Pad4)*%
X138139300Y-109639100D03*
%TO.P,AZMotor1,3*%
%TO.N,Net-(AZMotor1-Pad3)*%
X135599300Y-109639100D03*
%TO.P,AZMotor1,2*%
%TO.N,Net-(AZMotor1-Pad2)*%
X133059300Y-109639100D03*
D11*
%TO.P,AZMotor1,1*%
%TO.N,Net-(AZMotor1-Pad1)*%
X130519300Y-109639100D03*
%TD*%
D15*
%TO.P,StepperDriver2,16*%
%TO.N,Net-(RPi1-Pad35)*%
X141187300Y-80060800D03*
%TO.P,StepperDriver2,8*%
%TO.N,Net-(C1-Pad1)*%
X123407300Y-92760800D03*
%TO.P,StepperDriver2,15*%
%TO.N,Net-(RPi1-Pad32)*%
X138647300Y-80060800D03*
%TO.P,StepperDriver2,7*%
%TO.N,Net-(C1-Pad2)*%
X125947300Y-92760800D03*
%TO.P,StepperDriver2,14*%
%TO.N,Net-(RPi1-Pad1)*%
X136107300Y-80060800D03*
%TO.P,StepperDriver2,6*%
%TO.N,Net-(AZMotor1-Pad1)*%
X128487300Y-92760800D03*
%TO.P,StepperDriver2,13*%
%TO.N,Net-(RPi1-Pad1)*%
X133567300Y-80060800D03*
%TO.P,StepperDriver2,5*%
%TO.N,Net-(AZMotor1-Pad2)*%
X131027300Y-92760800D03*
%TO.P,StepperDriver2,12*%
%TO.N,Net-(RPi1-Pad3)*%
X131027300Y-80060800D03*
%TO.P,StepperDriver2,4*%
%TO.N,Net-(AZMotor1-Pad3)*%
X133567300Y-92760800D03*
%TO.P,StepperDriver2,11*%
%TO.N,Net-(RPi1-Pad5)*%
X128487300Y-80060800D03*
%TO.P,StepperDriver2,3*%
%TO.N,Net-(AZMotor1-Pad4)*%
X136107300Y-92760800D03*
%TO.P,StepperDriver2,10*%
%TO.N,Net-(RPi1-Pad7)*%
X125947300Y-80060800D03*
%TO.P,StepperDriver2,2*%
%TO.N,Net-(StepperDriver2-Pad2)*%
X138647300Y-92760800D03*
%TO.P,StepperDriver2,9*%
%TO.N,Net-(StepperDriver2-Pad9)*%
X123407300Y-80060800D03*
D16*
%TO.P,StepperDriver2,1*%
%TO.N,Net-(RPi1-Pad39)*%
X141187300Y-92760800D03*
%TD*%
D15*
%TO.P,StepperDriver1,16*%
%TO.N,Net-(RPi1-Pad37)*%
X117044600Y-80073500D03*
%TO.P,StepperDriver1,8*%
%TO.N,Net-(C1-Pad1)*%
X99264600Y-92773500D03*
%TO.P,StepperDriver1,15*%
%TO.N,Net-(RPi1-Pad33)*%
X114504600Y-80073500D03*
%TO.P,StepperDriver1,7*%
%TO.N,Net-(C1-Pad2)*%
X101804600Y-92773500D03*
%TO.P,StepperDriver1,14*%
%TO.N,Net-(RPi1-Pad1)*%
X111964600Y-80073500D03*
%TO.P,StepperDriver1,6*%
%TO.N,Net-(ALTMotor1-Pad1)*%
X104344600Y-92773500D03*
%TO.P,StepperDriver1,13*%
%TO.N,Net-(RPi1-Pad1)*%
X109424600Y-80073500D03*
%TO.P,StepperDriver1,5*%
%TO.N,Net-(ALTMotor1-Pad2)*%
X106884600Y-92773500D03*
%TO.P,StepperDriver1,12*%
%TO.N,Net-(RPi1-Pad11)*%
X106884600Y-80073500D03*
%TO.P,StepperDriver1,4*%
%TO.N,Net-(ALTMotor1-Pad3)*%
X109424600Y-92773500D03*
%TO.P,StepperDriver1,11*%
%TO.N,Net-(RPi1-Pad13)*%
X104344600Y-80073500D03*
%TO.P,StepperDriver1,3*%
%TO.N,Net-(ALTMotor1-Pad4)*%
X111964600Y-92773500D03*
%TO.P,StepperDriver1,10*%
%TO.N,Net-(RPi1-Pad15)*%
X101804600Y-80073500D03*
%TO.P,StepperDriver1,2*%
%TO.N,Net-(StepperDriver1-Pad2)*%
X114504600Y-92773500D03*
%TO.P,StepperDriver1,9*%
%TO.N,Net-(StepperDriver1-Pad9)*%
X99264600Y-80073500D03*
D16*
%TO.P,StepperDriver1,1*%
%TO.N,Net-(RPi1-Pad39)*%
X117044600Y-92773500D03*
%TD*%
D17*
%TO.N,Net-(Arduino1-Pad4)*%
X131903600Y-68364100D02*
X131941700Y-68402200D01*
X131914900Y-68375400D02*
X131941700Y-68402200D01*
X131914900Y-63461900D02*
X131914900Y-68375400D01*
%TO.N,Net-(Arduino1-Pad3)*%
X134443600Y-68364100D02*
X134481700Y-68402200D01*
X134454900Y-68375400D02*
X134481700Y-68402200D01*
X134454900Y-63461900D02*
X134454900Y-68375400D01*
%TO.N,Net-(Arduino1-Pad2)*%
X136983600Y-68364100D02*
X137021700Y-68402200D01*
X136994900Y-68375400D02*
X137021700Y-68402200D01*
X136994900Y-63461900D02*
X136994900Y-68375400D01*
X133972300Y-43534602D02*
X133972300Y-43789600D01*
%TO.N,Net-(Arduino1-Pad1)*%
X139523600Y-68364100D02*
X139561700Y-68402200D01*
X139534900Y-68375400D02*
X139561700Y-68402200D01*
X139534900Y-63461900D02*
X139534900Y-68375400D01*
%TO.N,Net-(C1-Pad2)*%
X125956200Y-92769700D02*
X125947300Y-92760800D01*
X101826200Y-92795100D02*
X101804600Y-92773500D01*
D18*
X101804600Y-101616500D02*
X101826200Y-101638100D01*
X125947300Y-101603800D02*
X125956200Y-101612700D01*
D17*
%TO.N,Net-(RPi1-Pad39)*%
X141187300Y-92760800D02*
X139142600Y-90716100D01*
X119102000Y-90716100D02*
X117044600Y-92773500D01*
X139142600Y-90716100D02*
X119102000Y-90716100D01*
X117044600Y-92773500D02*
X117044600Y-92519500D01*
X93841700Y-70942200D02*
X93841700Y-82994500D01*
X101017200Y-90170000D02*
X114695100Y-90170000D01*
X93841700Y-82994500D02*
X101017200Y-90170000D01*
X117044600Y-92519500D02*
X114695100Y-90170000D01*
%TO.N,Net-(RPi1-Pad37)*%
X105176701Y-71506201D02*
X104565701Y-72117201D01*
X105887901Y-69767199D02*
X105176701Y-70478399D01*
X105176701Y-70478399D02*
X105176701Y-71506201D01*
X129965701Y-69767199D02*
X105887901Y-69767199D01*
X97556701Y-72117201D02*
X96381700Y-70942200D01*
X130576701Y-70378199D02*
X129965701Y-69767199D01*
X130576701Y-71506201D02*
X130576701Y-70378199D01*
X129965701Y-72117201D02*
X130576701Y-71506201D01*
X104565701Y-72117201D02*
X97556701Y-72117201D01*
X129685897Y-72117201D02*
X129965701Y-72117201D01*
X121729598Y-80073500D02*
X129685897Y-72117201D01*
X117044600Y-80073500D02*
X121729598Y-80073500D01*
%TO.N,Net-(RPi1-Pad35)*%
X143726711Y-77521389D02*
X141187300Y-80060800D01*
X102845411Y-61036789D02*
X141945900Y-61036789D01*
X141945900Y-61036789D02*
X143726710Y-62817599D01*
X97746699Y-66135501D02*
X102845411Y-61036789D01*
X97746699Y-69767199D02*
X97746699Y-66135501D01*
X143726710Y-62817599D02*
X143726711Y-77521389D01*
X98921700Y-70942200D02*
X97746699Y-69767199D01*
%TO.N,Net-(RPi1-Pad33)*%
X104375703Y-69767199D02*
X102636701Y-69767199D01*
X105176701Y-67900299D02*
X105176701Y-68966201D01*
X129965701Y-67227199D02*
X105849801Y-67227199D01*
X105176701Y-68966201D02*
X104375703Y-69767199D01*
X130576701Y-68966201D02*
X130576701Y-67838199D01*
X105849801Y-67227199D02*
X105176701Y-67900299D01*
X131187701Y-69577201D02*
X130576701Y-68966201D01*
X102636701Y-69767199D02*
X101461700Y-70942200D01*
X130576701Y-67838199D02*
X129965701Y-67227199D01*
X137395703Y-69577201D02*
X131187701Y-69577201D01*
X138196701Y-70378199D02*
X137395703Y-69577201D01*
X138196701Y-71506201D02*
X138196701Y-70378199D01*
X137585701Y-72117201D02*
X138196701Y-71506201D01*
X137305897Y-72117201D02*
X137585701Y-72117201D01*
X129902299Y-79520799D02*
X137305897Y-72117201D01*
X129902299Y-80600801D02*
X129902299Y-79520799D01*
X129304599Y-81198501D02*
X129902299Y-80600801D01*
X115629601Y-81198501D02*
X129304599Y-81198501D01*
X114504600Y-80073500D02*
X115629601Y-81198501D01*
%TO.N,Net-(RPi1-Pad32)*%
X104001700Y-68402200D02*
X104001700Y-63233300D01*
X105748201Y-61486799D02*
X111171101Y-61486799D01*
X111171101Y-61486799D02*
X110917101Y-61486799D01*
X104001700Y-63233300D02*
X105748201Y-61486799D01*
X141445900Y-61486799D02*
X111983400Y-61486799D01*
X141507799Y-61486799D02*
X141445900Y-61486799D01*
X143276701Y-63255701D02*
X141507799Y-61486799D01*
X143276701Y-75431399D02*
X143276701Y-63255701D01*
X138647300Y-80060800D02*
X143276701Y-75431399D01*
X111171101Y-61486799D02*
X111945900Y-61486799D01*
%TO.N,Net-(RPi1-Pad15)*%
X124321700Y-70942200D02*
X120410100Y-74853800D01*
X107024300Y-74853800D02*
X101804600Y-80073500D01*
X120410100Y-74853800D02*
X107024300Y-74853800D01*
%TO.N,Net-(RPi1-Pad13)*%
X126861700Y-70942200D02*
X121730900Y-76073000D01*
X108345100Y-76073000D02*
X104344600Y-80073500D01*
X121730900Y-76073000D02*
X108345100Y-76073000D01*
%TO.N,Net-(RPi1-Pad11)*%
X129401700Y-70942200D02*
X123178700Y-77165200D01*
X109792900Y-77165200D02*
X106884600Y-80073500D01*
X123178700Y-77165200D02*
X109792900Y-77165200D01*
%TO.N,Net-(RPi1-Pad7)*%
X134481700Y-71526400D02*
X134481700Y-70942200D01*
X125947300Y-80060800D02*
X134481700Y-71526400D01*
%TO.N,Net-(RPi1-Pad5)*%
X137021700Y-71526400D02*
X137021700Y-70942200D01*
X128487300Y-80060800D02*
X137021700Y-71526400D01*
%TO.N,Net-(RPi1-Pad3)*%
X139561700Y-71526400D02*
X139561700Y-70942200D01*
X131027300Y-80060800D02*
X139561700Y-71526400D01*
%TO.N,Net-(RPi1-Pad1)*%
X136107300Y-80060800D02*
X133567300Y-80060800D01*
X136107300Y-76936600D02*
X142101700Y-70942200D01*
X136107300Y-80060800D02*
X136107300Y-76936600D01*
X111964600Y-80073500D02*
X109424600Y-80073500D01*
X133567300Y-80060800D02*
X131357500Y-82270600D01*
X114161700Y-82270600D02*
X111964600Y-80073500D01*
X131357500Y-82270600D02*
X114161700Y-82270600D01*
%TO.N,Net-(J2-Pad1)*%
X112355100Y-41249600D02*
X133972300Y-41249600D01*
X99589000Y-54015700D02*
X112355100Y-41249600D01*
X140531799Y-55035501D02*
X144843500Y-50723800D01*
X135859199Y-55035501D02*
X140531799Y-55035501D01*
X132797299Y-51973601D02*
X135859199Y-55035501D01*
X132797299Y-42424601D02*
X132797299Y-51973601D01*
X133972300Y-41249600D02*
X132797299Y-42424601D01*
X137904400Y-38417500D02*
X144932400Y-38417500D01*
X135072300Y-41249600D02*
X137904400Y-38417500D01*
X133972300Y-41249600D02*
X135072300Y-41249600D01*
%TO.N,Net-(J3-Pad4)*%
X143177989Y-60009311D02*
X144843500Y-58343800D01*
X116617609Y-60009311D02*
X143177989Y-60009311D01*
X111163999Y-54555701D02*
X116617609Y-60009311D01*
X111163999Y-53185701D02*
X111163999Y-54555701D01*
X111459001Y-52890699D02*
X111163999Y-53185701D01*
X113703999Y-52890699D02*
X111459001Y-52890699D01*
X114829000Y-54015700D02*
X113703999Y-52890699D01*
%TO.N,Net-(J3-Pad3)*%
X117832601Y-59559301D02*
X141087999Y-59559301D01*
X141087999Y-59559301D02*
X144843500Y-55803800D01*
X112289000Y-54015700D02*
X117832601Y-59559301D01*
X143757399Y-44672501D02*
X144932400Y-43497500D01*
X143757399Y-46601501D02*
X143757399Y-44672501D01*
X146018501Y-48862603D02*
X143757399Y-46601501D01*
X146018501Y-54628799D02*
X146018501Y-48862603D01*
X144843500Y-55803800D02*
X146018501Y-54628799D01*
%TD*%
M02*
