M48
; DRILL file {KiCad 5.1.7-a382d34a88~90~ubuntu20.04.1} date Fri Sep 16 19:00:31 2022
; FORMAT={-:-/ absolute / inch / decimal}
; #@! TF.CreationDate,2022-09-16T19:00:31+02:00
; #@! TF.GenerationSoftware,Kicad,Pcbnew,5.1.7-a382d34a88~90~ubuntu20.04.1
; #@! TF.FileFunction,Plated,1,2,PTH
FMAT,2
INCH
T1C0.0315
T2C0.0394
T3C0.0433
%
G90
G05
T1
X3.9081Y-3.1525
X3.9081Y-3.6525
X4.0081Y-3.1525
X4.0081Y-3.6525
X4.1081Y-3.1525
X4.1081Y-3.6525
X4.2081Y-3.1525
X4.2081Y-3.6525
X4.3081Y-3.1525
X4.3081Y-3.6525
X4.4081Y-3.1525
X4.4081Y-3.6525
X4.5081Y-3.1525
X4.5081Y-3.6525
X4.6081Y-3.1525
X4.6081Y-3.6525
X4.8586Y-3.152
X4.8586Y-3.652
X4.9586Y-3.152
X4.9586Y-3.652
X5.0586Y-3.152
X5.0586Y-3.652
X5.1586Y-3.152
X5.1586Y-3.652
X5.2586Y-3.152
X5.2586Y-3.652
X5.3586Y-3.152
X5.3586Y-3.652
X5.4586Y-3.152
X5.4586Y-3.652
X5.5586Y-3.152
X5.5586Y-3.652
T2
X5.1935Y-2.4985
X5.2935Y-2.4985
X5.3935Y-2.4985
X5.4935Y-2.4985
X5.706Y-1.5125
X5.706Y-1.6125
X5.706Y-1.7125
X5.706Y-1.8125
X5.2745Y-1.624
X5.2745Y-1.724
X5.2745Y-1.824
X5.2745Y-1.924
X5.2745Y-2.024
X3.693Y-4.272
X3.693Y-4.372
X4.7621Y-4.0005
X4.9589Y-4.0005
X5.1386Y-4.3165
X5.2386Y-4.3165
X5.3386Y-4.3165
X5.4386Y-4.3165
X3.6946Y-2.693
X3.6946Y-2.793
X3.7946Y-2.693
X3.7946Y-2.793
X3.8946Y-2.693
X3.8946Y-2.793
X3.9946Y-2.693
X3.9946Y-2.793
X4.0946Y-2.693
X4.0946Y-2.793
X4.1946Y-2.693
X4.1946Y-2.793
X4.2946Y-2.693
X4.2946Y-2.793
X4.3946Y-2.693
X4.3946Y-2.793
X4.4946Y-2.693
X4.4946Y-2.793
X4.5946Y-2.693
X4.5946Y-2.793
X4.6946Y-2.693
X4.6946Y-2.793
X4.7946Y-2.693
X4.7946Y-2.793
X4.8946Y-2.693
X4.8946Y-2.793
X4.9946Y-2.693
X4.9946Y-2.793
X5.0946Y-2.693
X5.0946Y-2.793
X5.1946Y-2.693
X5.1946Y-2.793
X5.2946Y-2.693
X5.2946Y-2.793
X5.3946Y-2.693
X5.3946Y-2.793
X5.4946Y-2.693
X5.4946Y-2.793
X5.5946Y-2.693
X5.5946Y-2.793
X3.8121Y-4.0015
X4.0089Y-4.0015
X5.7025Y-1.997
X5.7025Y-2.097
X5.7025Y-2.197
X5.7025Y-2.297
X4.1876Y-4.315
X4.2876Y-4.315
X4.3876Y-4.315
X4.4876Y-4.315
T3
X3.7208Y-1.5266
X3.7208Y-2.1266
X3.8208Y-1.5266
X3.8208Y-2.1266
X3.9208Y-1.5266
X3.9208Y-2.1266
X4.0208Y-1.5266
X4.0208Y-2.1266
X4.1208Y-1.5266
X4.1208Y-2.1266
X4.2208Y-1.5266
X4.2208Y-2.1266
X4.3208Y-1.5266
X4.3208Y-2.1266
X4.4208Y-1.5266
X4.4208Y-2.1266
X4.5208Y-1.5266
X4.5208Y-2.1266
X4.6208Y-1.5266
X4.6208Y-2.1266
X4.7208Y-1.5266
X4.7208Y-2.1266
X4.8208Y-1.5266
X4.8208Y-2.1266
X4.9208Y-1.5266
X4.9208Y-2.1266
X5.0208Y-1.5266
X5.0208Y-2.1266
T0
M30
