%TF.GenerationSoftware,KiCad,Pcbnew,5.1.7-a382d34a88~90~ubuntu20.04.1*%
%TF.CreationDate,2022-09-16T19:00:19+02:00*%
%TF.ProjectId,goto-exp,676f746f-2d65-4787-902e-6b696361645f,rev?*%
%TF.SameCoordinates,Original*%
%TF.FileFunction,Legend,Top*%
%TF.FilePolarity,Positive*%
%FSLAX46Y46*%
G04 Gerber Fmt 4.6, Leading zero omitted, Abs format (unit mm)*
G04 Created by KiCad (PCBNEW 5.1.7-a382d34a88~90~ubuntu20.04.1) date 2022-09-16 19:00:19*
%MOMM*%
%LPD*%
G01*
G04 APERTURE LIST*
%ADD10C,0.120000*%
%ADD11C,0.150000*%
G04 APERTURE END LIST*
D10*
%TO.C,RPi*%
X143431700Y-70942200D02*
X143431700Y-72272200D01*
X143431700Y-72272200D02*
X142101700Y-72272200D01*
X143431700Y-69672200D02*
X140831700Y-69672200D01*
X140831700Y-69672200D02*
X140831700Y-72272200D01*
X140831700Y-72272200D02*
X92511700Y-72272200D01*
X92511700Y-67072200D02*
X92511700Y-72272200D01*
X143431700Y-67072200D02*
X92511700Y-67072200D01*
X143431700Y-67072200D02*
X143431700Y-69672200D01*
D11*
X145324080Y-70100771D02*
X144847890Y-70434104D01*
X145324080Y-70672200D02*
X144324080Y-70672200D01*
X144324080Y-70291247D01*
X144371700Y-70196009D01*
X144419319Y-70148390D01*
X144514557Y-70100771D01*
X144657414Y-70100771D01*
X144752652Y-70148390D01*
X144800271Y-70196009D01*
X144847890Y-70291247D01*
X144847890Y-70672200D01*
X145324080Y-69672200D02*
X144324080Y-69672200D01*
X144324080Y-69291247D01*
X144371700Y-69196009D01*
X144419319Y-69148390D01*
X144514557Y-69100771D01*
X144657414Y-69100771D01*
X144752652Y-69148390D01*
X144800271Y-69196009D01*
X144847890Y-69291247D01*
X144847890Y-69672200D01*
X145324080Y-68672200D02*
X144657414Y-68672200D01*
X144324080Y-68672200D02*
X144371700Y-68719819D01*
X144419319Y-68672200D01*
X144371700Y-68624580D01*
X144324080Y-68672200D01*
X144419319Y-68672200D01*
%TD*%
M02*
